<svg xmlns="http://www.w3.org/2000/svg" viewBox="0 0 100 100">
  <rect width="100" height="100" rx="20" fill="#4f46e5"/>
  <!-- Stacked paper sheets -->
  <rect x="22" y="30" width="52" height="46" rx="4" fill="white" opacity="0.25"/>
  <rect x="18" y="26" width="52" height="46" rx="4" fill="white" opacity="0.45"/>
  <rect x="14" y="22" width="52" height="46" rx="4" fill="white"/>
  <!-- Text lines on paper -->
  <rect x="22" y="32" width="30" height="3" rx="1.5" fill="#4f46e5" opacity="0.6"/>
  <rect x="22" y="40" width="38" height="2.5" rx="1.25" fill="#4f46e5" opacity="0.3"/>
  <rect x="22" y="47" width="34" height="2.5" rx="1.25" fill="#4f46e5" opacity="0.3"/>
  <rect x="22" y="54" width="36" height="2.5" rx="1.25" fill="#4f46e5" opacity="0.3"/>
  <!-- Spark / AI dot -->
  <circle cx="57" cy="62" r="11" fill="#4f46e5"/>
  <path d="M57 55 L59 60 L64 60 L60 63.5 L61.5 69 L57 65.5 L52.5 69 L54 63.5 L50 60 L55 60 Z"
        fill="white"/>
</svg>
